<svg xmlns="http://www.w3.org/2000/svg" viewBox="0 0 512 512" role="img" aria-labelledby="title desc">
  <title id="title">Harbor Family Planner</title>
  <desc id="desc">A cozy home and anchor above harbor waves at sunrise.</desc>
  <defs>
    <linearGradient id="sky" x1="72" y1="36" x2="438" y2="476" gradientUnits="userSpaceOnUse">
      <stop stop-color="#123F4E"/>
      <stop offset="1" stop-color="#0A2733"/>
    </linearGradient>
    <linearGradient id="water" x1="82" y1="356" x2="428" y2="470" gradientUnits="userSpaceOnUse">
      <stop stop-color="#4CC0B5"/>
      <stop offset="1" stop-color="#1E7F8D"/>
    </linearGradient>
    <linearGradient id="gold" x1="198" y1="178" x2="322" y2="350" gradientUnits="userSpaceOnUse">
      <stop stop-color="#FFD67A"/>
      <stop offset="1" stop-color="#EAAE43"/>
    </linearGradient>
    <filter id="shadow" x="-20%" y="-20%" width="140%" height="150%">
      <feDropShadow dx="0" dy="14" stdDeviation="12" flood-color="#061820" flood-opacity=".35"/>
    </filter>
  </defs>

  <rect width="512" height="512" rx="112" fill="url(#sky)"/>
  <circle cx="382" cy="126" r="54" fill="#FFD782"/>
  <circle cx="382" cy="126" r="72" fill="none" stroke="#FFD782" stroke-opacity=".18" stroke-width="18"/>

  <path d="M0 364c68-28 119-32 183-4 62 27 110 28 176 0 61-26 100-23 153-4v156H0Z" fill="url(#water)"/>
  <path d="M0 402c63-24 118-24 176 1 63 28 116 28 178 0 59-26 104-24 158-3" fill="none" stroke="#B7EFE6" stroke-opacity=".72" stroke-width="18" stroke-linecap="round"/>
  <path d="M38 452c55-20 102-18 151 3 58 25 108 25 166 0 47-20 85-20 119-10" fill="none" stroke="#E9FFF9" stroke-opacity=".42" stroke-width="14" stroke-linecap="round"/>

  <g filter="url(#shadow)">
    <path d="M126 243 256 132l130 111v132c0 25-20 45-45 45H171c-25 0-45-20-45-45Z" fill="#FFF5DD"/>
    <path d="M103 246 256 116l153 130" fill="none" stroke="#F3C766" stroke-width="30" stroke-linecap="round" stroke-linejoin="round"/>
    <path d="M164 252h184" stroke="#D4B96F" stroke-opacity=".45" stroke-width="12" stroke-linecap="round"/>
  </g>

  <g fill="none" stroke="url(#gold)" stroke-width="24" stroke-linecap="round" stroke-linejoin="round">
    <circle cx="256" cy="228" r="28"/>
    <path d="M256 256v103"/>
    <path d="M216 294h80"/>
    <path d="M188 331c11 43 35 65 68 65s57-22 68-65"/>
    <path d="m188 331-3 43 40-17"/>
    <path d="m324 331 3 43-40-17"/>
  </g>

  <circle cx="184" cy="288" r="10" fill="#4AA79F"/>
  <circle cx="328" cy="288" r="10" fill="#4AA79F"/>
</svg>
