<svg xmlns="http://www.w3.org/2000/svg" viewBox="0 0 512 512" role="img" aria-labelledby="title desc">
  <title id="title">Harbor Reception Desk</title>
  <desc id="desc">A brass reception bell with a small anchor on a deep burgundy background.</desc>
  <defs>
    <linearGradient id="bg" x1="64" y1="28" x2="448" y2="484" gradientUnits="userSpaceOnUse">
      <stop stop-color="#5A1F2D"/>
      <stop offset="1" stop-color="#2A1016"/>
    </linearGradient>
    <linearGradient id="brass" x1="168" y1="122" x2="350" y2="384" gradientUnits="userSpaceOnUse">
      <stop stop-color="#E1BF83"/>
      <stop offset="1" stop-color="#C79A55"/>
    </linearGradient>
    <filter id="shadow" x="-20%" y="-20%" width="140%" height="150%">
      <feDropShadow dx="0" dy="18" stdDeviation="14" flood-color="#17080C" flood-opacity=".4"/>
    </filter>
  </defs>
  <rect width="512" height="512" rx="112" fill="url(#bg)"/>
  <circle cx="400" cy="112" r="44" fill="#E1BF83" opacity=".95"/>
  <circle cx="400" cy="112" r="63" fill="none" stroke="#E1BF83" stroke-opacity=".16" stroke-width="18"/>
  <g filter="url(#shadow)">
    <path d="M146 329c9-101 56-163 110-163s101 62 110 163H146Z" fill="url(#brass)"/>
    <path d="M127 329h258c14 0 25 11 25 25s-11 25-25 25H127c-14 0-25-11-25-25s11-25 25-25Z" fill="#F7F1E7"/>
    <rect x="215" y="132" width="82" height="42" rx="21" fill="#F7F1E7"/>
    <circle cx="256" cy="123" r="24" fill="#C79A55"/>
  </g>
  <g fill="none" stroke="#2A1016" stroke-width="18" stroke-linecap="round" stroke-linejoin="round">
    <circle cx="256" cy="253" r="24"/>
    <path d="M256 277v62M224 303h64"/>
    <path d="M198 329c10 34 31 51 58 51s48-17 58-51"/>
    <path d="m198 329-2 30 29-12M314 329l2 30-29-12"/>
  </g>
</svg>
