<svg xmlns="http://www.w3.org/2000/svg" viewBox="0 0 64 64" role="img" aria-label="Harbor Reception Desk">
  <defs><linearGradient id="bg" x1="8" y1="4" x2="56" y2="62" gradientUnits="userSpaceOnUse"><stop stop-color="#5A1F2D"/><stop offset="1" stop-color="#2A1016"/></linearGradient><linearGradient id="brass" x1="19" y1="16" x2="45" y2="50" gradientUnits="userSpaceOnUse"><stop stop-color="#E1BF83"/><stop offset="1" stop-color="#C79A55"/></linearGradient></defs>
  <rect width="64" height="64" rx="14" fill="url(#bg)"/><circle cx="49" cy="14" r="6" fill="#E1BF83"/><path d="M18 42c1-14 7-24 14-24s13 10 14 24H18Z" fill="url(#brass)"/><path d="M14 42h36c3 0 5 2 5 5s-2 5-5 5H14c-3 0-5-2-5-5s2-5 5-5Z" fill="#F7F1E7"/><circle cx="32" cy="15" r="4" fill="#C79A55"/><path d="M32 28v13M26 33h12M23 40c2 7 5 10 9 10s7-3 9-10" fill="none" stroke="#2A1016" stroke-width="3.5" stroke-linecap="round" stroke-linejoin="round"/>
</svg>
