<svg xmlns="http://www.w3.org/2000/svg" viewBox="0 0 64 64" role="img" aria-label="Harbor Reception Desk">
  <defs><linearGradient id="bg" x1="8" y1="4" x2="56" y2="62" gradientUnits="userSpaceOnUse"><stop stop-color="#21494A"/><stop offset="1" stop-color="#102F30"/></linearGradient><linearGradient id="gold" x1="19" y1="16" x2="45" y2="50" gradientUnits="userSpaceOnUse"><stop stop-color="#F4D59A"/><stop offset="1" stop-color="#D9A45E"/></linearGradient></defs>
  <rect width="64" height="64" rx="14" fill="url(#bg)"/><circle cx="49" cy="14" r="6" fill="#F1C77D"/><path d="M18 42c1-14 7-24 14-24s13 10 14 24H18Z" fill="url(#gold)"/><path d="M14 42h36c3 0 5 2 5 5s-2 5-5 5H14c-3 0-5-2-5-5s2-5 5-5Z" fill="#F8E8C8"/><circle cx="32" cy="15" r="4" fill="#D9A45E"/><path d="M32 28v13M26 33h12M23 40c2 7 5 10 9 10s7-3 9-10" fill="none" stroke="#102F30" stroke-width="3.5" stroke-linecap="round" stroke-linejoin="round"/>
</svg>
