<svg xmlns="http://www.w3.org/2000/svg" viewBox="0 0 512 512" role="img" aria-label="Harbor Reception Desk">
  <defs><linearGradient id="bg" x1="64" y1="28" x2="448" y2="484" gradientUnits="userSpaceOnUse"><stop stop-color="#21494A"/><stop offset="1" stop-color="#102F30"/></linearGradient><linearGradient id="gold" x1="168" y1="122" x2="350" y2="384" gradientUnits="userSpaceOnUse"><stop stop-color="#F4D59A"/><stop offset="1" stop-color="#D9A45E"/></linearGradient></defs>
  <rect width="512" height="512" rx="112" fill="url(#bg)"/><circle cx="400" cy="112" r="44" fill="#F1C77D"/><path d="M146 329c9-101 56-163 110-163s101 62 110 163H146Z" fill="url(#gold)"/><path d="M127 329h258c14 0 25 11 25 25s-11 25-25 25H127c-14 0-25-11-25-25s11-25 25-25Z" fill="#F8E8C8"/><rect x="215" y="132" width="82" height="42" rx="21" fill="#F8E8C8"/><circle cx="256" cy="123" r="24" fill="#D9A45E"/><g fill="none" stroke="#102F30" stroke-width="18" stroke-linecap="round" stroke-linejoin="round"><circle cx="256" cy="253" r="24"/><path d="M256 277v62M224 303h64"/><path d="M198 329c10 34 31 51 58 51s48-17 58-51"/></g>
</svg>
