<svg xmlns="http://www.w3.org/2000/svg" viewBox="0 0 512 512" role="img" aria-label="Harbor Reception Desk">
  <defs><linearGradient id="bg" x1="64" y1="28" x2="448" y2="484" gradientUnits="userSpaceOnUse"><stop stop-color="#5A1F2D"/><stop offset="1" stop-color="#2A1016"/></linearGradient><linearGradient id="brass" x1="168" y1="122" x2="350" y2="384" gradientUnits="userSpaceOnUse"><stop stop-color="#E1BF83"/><stop offset="1" stop-color="#C79A55"/></linearGradient></defs>
  <rect width="512" height="512" rx="112" fill="url(#bg)"/><circle cx="400" cy="112" r="44" fill="#E1BF83"/><path d="M146 329c9-101 56-163 110-163s101 62 110 163H146Z" fill="url(#brass)"/><path d="M127 329h258c14 0 25 11 25 25s-11 25-25 25H127c-14 0-25-11-25-25s11-25 25-25Z" fill="#F7F1E7"/><rect x="215" y="132" width="82" height="42" rx="21" fill="#F7F1E7"/><circle cx="256" cy="123" r="24" fill="#C79A55"/><g fill="none" stroke="#2A1016" stroke-width="18" stroke-linecap="round" stroke-linejoin="round"><circle cx="256" cy="253" r="24"/><path d="M256 277v62M224 303h64"/><path d="M198 329c10 34 31 51 58 51s48-17 58-51"/></g>
</svg>
